<?xml version="1.0" encoding="UTF-8" standalone="no"?>
<!-- Created with Inkscape (http://www.inkscape.org/) -->

<svg
   xmlns:dc="http://purl.org/dc/elements/1.1/"
   xmlns:cc="http://creativecommons.org/ns#"
   xmlns:rdf="http://www.w3.org/1999/02/22-rdf-syntax-ns#"
   xmlns:svg="http://www.w3.org/2000/svg"
   xmlns="http://www.w3.org/2000/svg"
   xmlns:xlink="http://www.w3.org/1999/xlink"
   version="1.1"
   width="966.17401"
   height="333.45633"
   id="svg2">
  <defs
     id="defs4">
    <linearGradient
       id="linearGradient4257">
      <stop
         id="stop4259"
         style="stop-color:#00a095;stop-opacity:0.62790698"
         offset="0" />
      <stop
         id="stop4261"
         style="stop-color:#2cafca;stop-opacity:0.62790698"
         offset="1" />
    </linearGradient>
    <linearGradient
       x1="185.7173"
       y1="-18.2241"
       x2="137.8931"
       y2="-18.2241"
       id="SVGID_1_"
       gradientUnits="userSpaceOnUse"
       gradientTransform="matrix(0.9992,0.0404,-0.0404,0.9992,-21.944,15.4347)">
      <stop
         id="stop263"
         style="stop-color:#ffffff;stop-opacity:1"
         offset="0" />
      <stop
         id="stop265"
         style="stop-color:#009ee0;stop-opacity:1"
         offset="1" />
    </linearGradient>
    <linearGradient
       x1="185.7173"
       y1="-12.0591"
       x2="134.15669"
       y2="-12.0591"
       id="SVGID_2_"
       gradientUnits="userSpaceOnUse"
       gradientTransform="matrix(0.9992,0.0404,-0.0404,0.9992,-21.944,15.4347)">
      <stop
         id="stop270"
         style="stop-color:#ffffff;stop-opacity:1"
         offset="0" />
      <stop
         id="stop272"
         style="stop-color:#009ee0;stop-opacity:1"
         offset="1" />
    </linearGradient>
    <linearGradient
       x1="185.7173"
       y1="-12.0591"
       x2="134.15669"
       y2="-12.0591"
       id="linearGradient3234"
       xlink:href="#SVGID_2_"
       gradientUnits="userSpaceOnUse"
       gradientTransform="matrix(0.9992,0.0404,-0.0404,0.9992,-21.944,15.4347)" />
    <linearGradient
       x1="257.96362"
       y1="294.4245"
       x2="1064.5616"
       y2="294.4245"
       id="linearGradient4271"
       xlink:href="#linearGradient4257"
       gradientUnits="userSpaceOnUse"
       gradientTransform="translate(40,40)" />
    <linearGradient
       x1="185.7173"
       y1="-18.2241"
       x2="137.8931"
       y2="-18.2241"
       id="linearGradient4296"
       xlink:href="#SVGID_1_"
       gradientUnits="userSpaceOnUse"
       gradientTransform="matrix(0.9992,0.0404,-0.0404,0.9992,2.0198242,71.819965)" />
    <linearGradient
       x1="185.7173"
       y1="-12.0591"
       x2="134.15669"
       y2="-12.0591"
       id="linearGradient4298"
       xlink:href="#SVGID_2_"
       gradientUnits="userSpaceOnUse"
       gradientTransform="matrix(0.9992,0.0404,-0.0404,0.9992,2.0198242,71.819965)" />
    <linearGradient
       x1="257.96362"
       y1="294.4245"
       x2="1064.5616"
       y2="294.4245"
       id="linearGradient4300"
       xlink:href="#linearGradient4257"
       gradientUnits="userSpaceOnUse"
       gradientTransform="translate(87.561355,316.18094)" />
  </defs>
  <metadata
     id="metadata7">
    <rdf:RDF>
      <cc:Work
         rdf:about="">
        <dc:format>image/svg+xml</dc:format>
        <dc:type
           rdf:resource="http://purl.org/dc/dcmitype/StillImage" />
        <dc:title></dc:title>
      </cc:Work>
    </rdf:RDF>
  </metadata>
  <g
     transform="translate(-336.50322,-301.67892)"
     id="layer1">
    <g
       transform="matrix(0.9060735,0,0,0.9060735,66.526281,68.660539)"
       id="g4273">
      <g
         transform="translate(3.7856063,-20.993997)"
         id="g4131">
        <path
           d="m 405.41954,406.67397 c -37.93508,0 -69.58399,31.13496 -69.58399,70.10953 0,38.97456 31.64881,70.24991 69.58399,70.24991 l 59.28977,0 10.16395,0.002 0,-10.80996 0,-59.44219 c 0,-38.97436 -31.51858,-70.10953 -69.45372,-70.10953 z m 0,21.475 c 27.65743,0 49.25614,22.01648 49.25614,48.63453 l 0,48.63452 -49.25614,0 c -27.65721,0 -49.25607,-22.01663 -49.25607,-48.63452 0,-26.61784 21.5987,-48.63453 49.25607,-48.63453 z"
           id="path3955"
           style="font-size:medium;font-style:normal;font-variant:normal;font-weight:normal;font-stretch:normal;text-indent:0;text-align:start;text-decoration:none;line-height:normal;letter-spacing:normal;word-spacing:normal;text-transform:none;direction:ltr;block-progression:tb;writing-mode:lr-tb;text-anchor:start;baseline-shift:baseline;color:#000000;fill:#ffffff;fill-opacity:1;stroke:none;stroke-width:4.84953356;marker:none;visibility:visible;display:inline;overflow:visible;enable-background:accumulate;font-family:Sans;-inkscape-font-specification:Sans" />
        <path
           d="m 637.82903,406.67324 -64.69785,140.36241 -63.76695,-140.36089 20.47988,-0.002 43.75255,89.42116 44.68328,-89.42116 z"
           id="rect3958"
           style="fill:#ffffff;fill-opacity:1;stroke:none" />
        <path
           d="m 673.04039,406.67397 0,140.36168 20.85224,0 0,-140.36168 z"
           id="rect3961"
           style="font-size:medium;font-style:normal;font-variant:normal;font-weight:normal;font-stretch:normal;text-indent:0;text-align:start;text-decoration:none;line-height:normal;letter-spacing:normal;word-spacing:normal;text-transform:none;direction:ltr;block-progression:tb;writing-mode:lr-tb;text-anchor:start;baseline-shift:baseline;color:#000000;fill:#ffffff;fill-opacity:1;stroke:none;stroke-width:4;marker:none;visibility:visible;display:inline;overflow:visible;enable-background:accumulate;font-family:Sans;-inkscape-font-specification:Sans" />
        <path
           d="m 759.70753,406.59875 c -22.62427,0 -41.70449,17.88612 -41.70449,40.23832 0,22.3522 19.08043,40.23831 41.70449,40.23831 l 55.06296,0 c 12.02012,0 21.01516,8.84646 21.01516,19.54898 0,10.70252 -8.99535,19.71189 -21.01516,19.71189 -17.25028,0 -70.74228,-0.18663 -86.50423,0 l 0.16264,20.52643 c 15.03296,-0.17829 68.94665,9.4e-4 86.34133,9.4e-4 22.62516,0 41.70449,-17.88711 41.70449,-40.23926 0,-22.35214 -19.07965,-40.23831 -41.70449,-40.23831 l -55.06296,0 c -12.0209,0 -21.01515,-8.84652 -21.01515,-19.54898 0,-10.70247 8.99446,-19.71189 21.01515,-19.71189 17.42893,0 68.52908,-0.26482 86.34133,-0.002 l 0.16265,-20.52773 c -18.5816,-0.27473 -69.28821,0.003 -86.50424,0.003 z"
           id="path4001-1"
           style="font-size:medium;font-style:normal;font-variant:normal;font-weight:normal;font-stretch:normal;text-indent:0;text-align:start;text-decoration:none;line-height:normal;letter-spacing:normal;word-spacing:normal;text-transform:none;direction:ltr;block-progression:tb;writing-mode:lr-tb;text-anchor:start;baseline-shift:baseline;color:#000000;fill:#ffffff;fill-opacity:1;stroke:none;stroke-width:3.94493556;marker:none;visibility:visible;display:inline;overflow:visible;enable-background:accumulate;font-family:Sans;-inkscape-font-specification:Sans" />
        <path
           d="m 952.19899,406.59578 c -36.85285,0 -68.99273,29.3694 -68.99273,70.09539 0,40.726 32.13988,70.17245 68.99273,70.17245 36.8529,0 68.81861,-29.44645 68.81861,-70.17245 0,-40.72599 -31.96571,-70.09539 -68.81861,-70.09539 z m 0,22.35882 c 26.87625,0 46.46135,24.73352 46.46135,47.73657 0,23.003 -19.5851,47.81363 -46.46135,47.81363 -26.8762,0 -46.63391,-24.81063 -46.63391,-47.81363 0,-23.00305 19.75771,-47.73657 46.63391,-47.73657 z"
           id="path4052"
           style="font-size:medium;font-style:normal;font-variant:normal;font-weight:normal;font-stretch:normal;text-indent:0;text-align:start;text-decoration:none;line-height:normal;letter-spacing:normal;word-spacing:normal;text-transform:none;direction:ltr;block-progression:tb;writing-mode:lr-tb;text-anchor:start;baseline-shift:baseline;color:#000000;fill:#ffffff;fill-opacity:1;stroke:none;stroke-width:4;marker:none;visibility:visible;display:inline;overflow:visible;enable-background:accumulate;font-family:Sans;-inkscape-font-specification:Sans" />
        <path
           d="m 1047.0775,341.92421 0,134.72505 c 0,21.41812 8.1841,39.95103 23.6217,51.64189 15.4377,11.69086 36.5993,16.61663 61.9051,16.61663 l 0,-24.59913 c -22.0276,0 -37.6059,-4.51482 -46.9175,-11.56648 -9.3117,-7.05166 -14.0101,-16.38053 -14.0101,-32.09291 l 0,-19.22316 60.9276,0 0,-24.76204 -60.9276,0 0,-90.73985 -24.5992,0 z"
           id="path4052-0-9"
           style="font-size:medium;font-style:normal;font-variant:normal;font-weight:normal;font-stretch:normal;text-indent:0;text-align:start;text-decoration:none;line-height:normal;letter-spacing:normal;word-spacing:normal;text-transform:none;direction:ltr;block-progression:tb;writing-mode:lr-tb;text-anchor:start;baseline-shift:baseline;color:#000000;fill:#ffffff;fill-opacity:1;stroke:none;stroke-width:4.71974993;marker:none;visibility:visible;display:inline;overflow:visible;enable-background:accumulate;font-family:Sans;-inkscape-font-specification:Sans" />
        <path
           d="m 1226.3199,406.67397 c -37.935,0 -69.584,31.13496 -69.584,70.10953 0,38.97456 31.6488,70.24991 69.584,70.24991 l 59.2898,0 10.164,0.002 0,-10.80996 0,-59.44219 c 0,-38.97436 -31.5186,-70.10953 -69.4538,-70.10953 z m 0,21.475 c 27.6575,0 49.2562,22.01648 49.2562,48.63453 l 0,48.63452 -49.2562,0 c -27.6572,0 -49.256,-22.01663 -49.256,-48.63452 0,-26.61784 21.5987,-48.63453 49.256,-48.63453 z"
           id="path3955-1"
           style="font-size:medium;font-style:normal;font-variant:normal;font-weight:normal;font-stretch:normal;text-indent:0;text-align:start;text-decoration:none;line-height:normal;letter-spacing:normal;word-spacing:normal;text-transform:none;direction:ltr;block-progression:tb;writing-mode:lr-tb;text-anchor:start;baseline-shift:baseline;color:#000000;fill:#ffffff;fill-opacity:1;stroke:none;stroke-width:4.84953356;marker:none;visibility:visible;display:inline;overflow:visible;enable-background:accumulate;font-family:Sans;-inkscape-font-specification:Sans" />
      </g>
      <g
         transform="matrix(4.4523797,1.0487614,-1.0487614,4.4523797,631.7423,131.45801)"
         id="g256">
        <polygon
           points="116.607,7.208 164.342,0.543 124.115,15.739 "
           id="polygon258"
           style="fill:#00a096" />
        <polygon
           points="115.999,9.64 164.252,0 125.512,18.415 "
           id="polygon260"
           style="fill:#00a096" />
        <linearGradient
           x1="185.7173"
           y1="-18.2241"
           x2="137.8931"
           y2="-18.2241"
           id="linearGradient3220"
           gradientUnits="userSpaceOnUse"
           gradientTransform="matrix(0.9992,0.0404,-0.0404,0.9992,-21.944,15.4347)">
          <stop
             id="stop3222"
             style="stop-color:#ffffff;stop-opacity:1"
             offset="0" />
          <stop
             id="stop3224"
             style="stop-color:#009ee0;stop-opacity:1"
             offset="1" />
        </linearGradient>
        <polygon
           points="118.85,1.957 164.546,0.066 116.384,7.465 "
           id="polygon267"
           style="opacity:0.66000001;fill:url(#linearGradient4296)" />
        <linearGradient
           x1="185.7173"
           y1="-12.0591"
           x2="134.15669"
           y2="-12.0591"
           id="linearGradient3227"
           gradientUnits="userSpaceOnUse"
           gradientTransform="matrix(0.9992,0.0404,-0.0404,0.9992,-21.944,15.4347)">
          <stop
             id="stop3229"
             style="stop-color:#ffffff;stop-opacity:1"
             offset="0" />
          <stop
             id="stop3231"
             style="stop-color:#009ee0;stop-opacity:1"
             offset="1" />
        </linearGradient>
        <polygon
           points="115.95,8.944 164.532,0.439 112.167,19.261 "
           id="polygon274"
           style="opacity:0.66000001;fill:url(#linearGradient4298)" />
      </g>
      <path
         d="M 435.27355,296.1081 C 526.77642,275.29437 648.64258,258.40988 1104.5616,290.4569 836.06503,265.13479 704.25912,244.37826 490.9073,266.61933 277.55548,288.8604 283.6384,346.08236 312.60204,411.6752 301.3416,338.2013 343.77069,316.92183 435.27355,296.1081 z"
         id="path4294"
         style="fill:url(#linearGradient4300);fill-opacity:1;stroke:none" />
    </g>
    <g
       id="text3025"
       style="font-size:40px;font-style:normal;font-weight:normal;line-height:125%;letter-spacing:0px;word-spacing:0px;fill:#ffffff;fill-opacity:1;stroke:none;font-family:Sans">
      <path
         d="m 447.98868,593.57275 c 0,-0.60153 0.20963,-1.11195 0.6289,-1.53125 0.4375,-0.43747 0.95703,-0.65622 1.5586,-0.65625 0.60156,3e-5 1.11197,0.21878 1.53125,0.65625 0.43749,0.4193 0.65624,0.92972 0.65625,1.53125 l 0,1.77735 c 2.73436,-2.6432 6.01561,-3.96482 9.84375,-3.96485 3.91925,3e-5 7.2643,1.39456 10.03515,4.1836 2.78904,2.77085 4.18357,6.1159 4.1836,10.03515 l 0,14.21875 c -3e-5,0.60157 -0.21878,1.1211 -0.65625,1.5586 -0.4193,0.41927 -0.92972,0.6289 -1.53125,0.6289 -0.60159,0 -1.12112,-0.20963 -1.5586,-0.6289 -0.41929,-0.4375 -0.62893,-0.95703 -0.6289,-1.5586 l 0,-14.21875 c -3e-5,-2.71612 -0.96617,-5.03122 -2.89844,-6.94531 -1.91408,-1.93226 -4.22919,-2.89841 -6.94531,-2.89844 -2.71616,3e-5 -5.04038,0.96618 -6.97266,2.89844 -1.91407,1.91409 -2.8711,4.22919 -2.87109,6.94531 l 0,14.21875 c -10e-6,0.60157 -0.21876,1.1211 -0.65625,1.5586 -0.41928,0.41927 -0.92969,0.6289 -1.53125,0.6289 -0.60157,0 -1.1211,-0.20963 -1.5586,-0.6289 -0.41927,-0.4375 -0.6289,-0.95703 -0.6289,-1.5586 l 0,-26.25"
         id="path3915"
         style="font-size:56px;font-variant:normal;font-stretch:normal;fill:#ffffff;font-family:Comfortaa;-inkscape-font-specification:Comfortaa" />
      <path
         d="m 506.85977,604.51025 c -0.40107,-2.09633 -1.40367,-3.94659 -3.00781,-5.55078 -2.13284,-2.13278 -4.71226,-3.19919 -7.73828,-3.19922 -3.02606,3e-5 -5.60548,1.06644 -7.73828,3.19922 -1.60418,1.60419 -2.60678,3.45445 -3.00782,5.55078 l 21.49219,0 m -2.32422,10.0625 c 0.60154,10e-6 1.11196,0.21876 1.53125,0.65625 0.43748,0.41928 0.65622,0.9297 0.65625,1.53125 -3e-5,0.60157 -0.20966,1.1211 -0.6289,1.5586 -2.82555,2.46094 -6.15237,3.6914 -9.98047,3.6914 -4.22918,0 -7.83855,-1.49479 -10.82813,-4.48437 -2.98958,-2.98958 -4.48437,-6.59895 -4.48437,-10.82813 0,-4.22914 1.49479,-7.83851 4.48437,-10.82812 2.98958,-2.98956 6.59895,-4.48435 10.82813,-4.48438 4.22914,3e-5 7.83851,1.49482 10.82812,4.48438 2.98955,2.98961 4.48435,6.59898 4.48438,10.82812 -3e-5,0.60158 -0.21878,1.12111 -0.65625,1.5586 -0.4193,0.41928 -0.92972,0.62892 -1.53125,0.6289 l -23.8711,0 c 0.40104,2.09637 1.40364,3.94663 3.00782,5.55079 2.1328,2.13281 4.71222,3.19922 7.73828,3.19921 2.73435,10e-6 5.08591,-0.86588 7.05469,-2.59765 0.40101,-0.30989 0.85674,-0.46484 1.36718,-0.46485"
         id="path3917"
         style="font-size:56px;font-variant:normal;font-stretch:normal;fill:#ffffff;font-family:Comfortaa;-inkscape-font-specification:Comfortaa" />
      <path
         d="m 533.95743,592.01416 c 0.41925,-0.41924 0.92966,-0.62888 1.53125,-0.62891 0.60154,3e-5 1.12107,0.20967 1.55859,0.62891 0.27342,0.2917 0.46482,0.62894 0.57422,1.01172 l 6.61719,19.87891 6.7539,-20.26172 c 0.10934,-0.21872 0.26429,-0.42836 0.46485,-0.62891 0.41923,-0.41924 0.92965,-0.62888 1.53125,-0.62891 0.60152,3e-5 1.11194,0.21878 1.53125,0.65625 0.43746,0.4193 0.65621,0.92972 0.65625,1.53125 -4e-5,0.2917 -0.0547,0.57425 -0.16406,0.84766 l -8.72266,26.19531 c -0.10941,0.27344 -0.27347,0.53776 -0.49219,0.79297 -0.43753,0.40104 -0.95706,0.60156 -1.55859,0.60156 -0.60159,0 -1.11201,-0.20052 -1.53125,-0.60156 -0.23701,-0.25521 -0.41019,-0.51953 -0.51953,-0.79297 l -6.69922,-20.125 -6.69922,20.125 c -0.10939,0.27344 -0.27345,0.53776 -0.49219,0.79297 -0.43751,0.40104 -0.95704,0.60156 -1.55859,0.60156 -0.60158,0 -1.11199,-0.20052 -1.53125,-0.60156 -0.23699,-0.25521 -0.41017,-0.51953 -0.51953,-0.79297 l -8.72266,-26.19531 c -0.10938,-0.27341 -0.16406,-0.55596 -0.16406,-0.84766 0,-0.60153 0.20963,-1.11195 0.6289,-1.53125 0.4375,-0.43747 0.95703,-0.65622 1.5586,-0.65625 0.60156,3e-5 1.12109,0.20967 1.55859,0.62891 0.18229,0.20055 0.32812,0.41019 0.4375,0.62891 l 6.75391,20.26172 6.61719,-19.87891 c 0.12758,-0.38278 0.3281,-0.72002 0.60156,-1.01172"
         id="path3919"
         style="font-size:56px;font-variant:normal;font-stretch:normal;fill:#ffffff;font-family:Comfortaa;-inkscape-font-specification:Comfortaa" />
      <path
         d="m 564.96524,606.69775 c -1.65886,-0.61977 -2.81641,-1.26691 -3.47266,-1.9414 -1.29427,-1.27603 -1.9414,-2.81639 -1.9414,-4.6211 0,-1.80466 0.67447,-3.38148 2.02344,-4.73046 2.62499,-2.67966 6.05207,-4.01951 10.28125,-4.01954 4.5755,3e-5 8.49476,1.83206 11.75781,5.4961 0.29164,0.34638 0.42836,0.77476 0.41015,1.28515 -2e-5,0.60159 -0.21877,1.12112 -0.65625,1.5586 -0.41929,0.41929 -0.92971,0.62893 -1.53125,0.6289 -0.60158,3e-5 -1.08465,-0.19138 -1.44921,-0.57421 -0.36461,-0.38279 -0.62893,-0.65623 -0.79297,-0.82032 -2.13284,-2.13278 -4.71226,-3.19919 -7.73828,-3.19922 -3.02606,3e-5 -5.44142,0.94795 -7.2461,2.84375 -0.43751,0.52867 -0.65625,1.15758 -0.65625,1.88672 0.0547,0.85679 0.5013,1.44013 1.33985,1.75 l 13.45312,4.45703 c 1.65883,0.61981 2.81638,1.26695 3.47266,1.94141 1.29424,1.27605 1.94138,2.81642 1.9414,4.62109 -2e-5,1.8047 -0.6745,3.38152 -2.02343,4.73047 -2.62503,2.67969 -6.05211,4.01953 -10.28125,4.01953 -4.59376,0 -8.51303,-1.83203 -11.75782,-5.49609 -0.27344,-0.38281 -0.41016,-0.81119 -0.41015,-1.28516 -10e-6,-0.60155 0.20963,-1.11197 0.6289,-1.53125 0.4375,-0.43749 0.95703,-0.65624 1.5586,-0.65625 0.60155,10e-6 1.08463,0.19142 1.44922,0.57422 0.36457,0.38282 0.6289,0.65626 0.79296,0.82032 2.13281,2.13281 4.71223,3.19922 7.73829,3.19921 3.02602,10e-6 5.44138,-0.94791 7.24609,-2.84375 0.43748,-0.52863 0.65623,-1.15754 0.65625,-1.88671 -0.0547,-0.85677 -0.50132,-1.4401 -1.33984,-1.75 l -13.45313,-4.45704"
         id="path3921"
         style="font-size:56px;font-variant:normal;font-stretch:normal;fill:#ffffff;font-family:Comfortaa;-inkscape-font-specification:Comfortaa" />
      <path
         d="m 588.53555,580.44775 c 0,-0.60152 0.20964,-1.11193 0.62891,-1.53125 0.4375,-0.43745 0.95703,-0.6562 1.55859,-0.65625 0.60156,5e-5 1.11198,0.2188 1.53125,0.65625 0.4375,0.41932 0.65625,0.92973 0.65625,1.53125 l 0,37.1875 2.1875,0 c 0.60156,10e-6 1.11197,0.21876 1.53125,0.65625 0.43749,0.41928 0.65624,0.92969 0.65625,1.53125 -10e-6,0.60157 -0.21876,1.1211 -0.65625,1.5586 -0.41928,0.41927 -0.92969,0.6289 -1.53125,0.6289 l -4.375,0 c -0.60156,0 -1.12109,-0.20963 -1.55859,-0.6289 -0.41927,-0.4375 -0.62891,-0.95703 -0.62891,-1.5586 l 0,-39.375"
         id="path3923"
         style="font-size:56px;font-variant:normal;font-stretch:normal;fill:#ffffff;font-family:Comfortaa;-inkscape-font-specification:Comfortaa" />
      <path
         d="m 627.71915,604.51025 c -0.40107,-2.09633 -1.40368,-3.94659 -3.00782,-5.55078 -2.13283,-2.13278 -4.71226,-3.19919 -7.73828,-3.19922 -3.02605,3e-5 -5.60548,1.06644 -7.73828,3.19922 -1.60417,1.60419 -2.60678,3.45445 -3.00781,5.55078 l 21.49219,0 m -2.32422,10.0625 c 0.60153,10e-6 1.11195,0.21876 1.53125,0.65625 0.43747,0.41928 0.65622,0.9297 0.65625,1.53125 -3e-5,0.60157 -0.20967,1.1211 -0.62891,1.5586 -2.82554,2.46094 -6.15236,3.6914 -9.98047,3.6914 -4.22918,0 -7.83855,-1.49479 -10.82812,-4.48437 -2.98959,-2.98958 -4.48438,-6.59895 -4.48438,-10.82813 0,-4.22914 1.49479,-7.83851 4.48438,-10.82812 2.98957,-2.98956 6.59894,-4.48435 10.82812,-4.48438 4.22915,3e-5 7.83852,1.49482 10.82813,4.48438 2.98955,2.98961 4.48434,6.59898 4.48437,10.82812 -3e-5,0.60158 -0.21878,1.12111 -0.65625,1.5586 -0.4193,0.41928 -0.92972,0.62892 -1.53125,0.6289 l -23.87109,0 c 0.40103,2.09637 1.40364,3.94663 3.00781,5.55079 2.1328,2.13281 4.71223,3.19922 7.73828,3.19921 2.73436,10e-6 5.08592,-0.86588 7.05469,-2.59765 0.40102,-0.30989 0.85675,-0.46484 1.36719,-0.46485"
         id="path3925"
         style="font-size:56px;font-variant:normal;font-stretch:normal;fill:#ffffff;font-family:Comfortaa;-inkscape-font-specification:Comfortaa" />
      <path
         d="m 651.97305,617.63525 c 0.60155,10e-6 1.11196,0.21876 1.53125,0.65625 0.43748,0.41928 0.65623,0.92969 0.65625,1.53125 -2e-5,0.60157 -0.21877,1.1211 -0.65625,1.5586 -0.41929,0.41927 -0.9297,0.6289 -1.53125,0.6289 -7.29167,0 -10.9375,-3.64583 -10.9375,-10.9375 l 0,-15.3125 -2.1875,0 c -0.60156,3e-5 -1.12109,-0.20961 -1.55859,-0.6289 -0.41927,-0.43748 -0.62891,-0.95701 -0.62891,-1.5586 0,-0.60153 0.20964,-1.11195 0.62891,-1.53125 0.4375,-0.43747 0.95703,-0.65622 1.55859,-0.65625 l 2.1875,0 0,-10.9375 c 0,-0.60152 0.20963,-1.11193 0.62891,-1.53125 0.43749,-0.43745 0.95702,-0.6562 1.55859,-0.65625 0.60156,5e-5 1.11197,0.2188 1.53125,0.65625 0.43749,0.41932 0.65624,0.92973 0.65625,1.53125 l 0,10.9375 4.40235,0 c 0.60154,3e-5 1.11196,0.21878 1.53125,0.65625 0.43748,0.4193 0.65623,0.92972 0.65625,1.53125 -2e-5,0.60159 -0.21877,1.12112 -0.65625,1.5586 -0.41929,0.41929 -0.92971,0.62893 -1.53125,0.6289 l -4.40235,0 0,15.3125 c -10e-6,4.37501 2.18749,6.56251 6.5625,6.5625"
         id="path3927"
         style="font-size:56px;font-variant:normal;font-stretch:normal;fill:#ffffff;font-family:Comfortaa;-inkscape-font-specification:Comfortaa" />
      <path
         d="m 673.84805,617.63525 c 0.60155,10e-6 1.11196,0.21876 1.53125,0.65625 0.43748,0.41928 0.65623,0.92969 0.65625,1.53125 -2e-5,0.60157 -0.21877,1.1211 -0.65625,1.5586 -0.41929,0.41927 -0.9297,0.6289 -1.53125,0.6289 -7.29167,0 -10.9375,-3.64583 -10.9375,-10.9375 l 0,-15.3125 -2.1875,0 c -0.60156,3e-5 -1.12109,-0.20961 -1.55859,-0.6289 -0.41927,-0.43748 -0.62891,-0.95701 -0.62891,-1.5586 0,-0.60153 0.20964,-1.11195 0.62891,-1.53125 0.4375,-0.43747 0.95703,-0.65622 1.55859,-0.65625 l 2.1875,0 0,-10.9375 c 0,-0.60152 0.20963,-1.11193 0.62891,-1.53125 0.43749,-0.43745 0.95702,-0.6562 1.55859,-0.65625 0.60156,5e-5 1.11197,0.2188 1.53125,0.65625 0.43749,0.41932 0.65624,0.92973 0.65625,1.53125 l 0,10.9375 4.40235,0 c 0.60154,3e-5 1.11196,0.21878 1.53125,0.65625 0.43748,0.4193 0.65623,0.92972 0.65625,1.53125 -2e-5,0.60159 -0.21877,1.12112 -0.65625,1.5586 -0.41929,0.41929 -0.92971,0.62893 -1.53125,0.6289 l -4.40235,0 0,15.3125 c -10e-6,4.37501 2.18749,6.56251 6.5625,6.5625"
         id="path3929"
         style="font-size:56px;font-variant:normal;font-stretch:normal;fill:#ffffff;font-family:Comfortaa;-inkscape-font-specification:Comfortaa" />
      <path
         d="m 706.46915,604.51025 c -0.40107,-2.09633 -1.40368,-3.94659 -3.00782,-5.55078 -2.13283,-2.13278 -4.71226,-3.19919 -7.73828,-3.19922 -3.02605,3e-5 -5.60548,1.06644 -7.73828,3.19922 -1.60417,1.60419 -2.60678,3.45445 -3.00781,5.55078 l 21.49219,0 m -2.32422,10.0625 c 0.60153,10e-6 1.11195,0.21876 1.53125,0.65625 0.43747,0.41928 0.65622,0.9297 0.65625,1.53125 -3e-5,0.60157 -0.20967,1.1211 -0.62891,1.5586 -2.82554,2.46094 -6.15236,3.6914 -9.98047,3.6914 -4.22918,0 -7.83855,-1.49479 -10.82812,-4.48437 -2.98959,-2.98958 -4.48438,-6.59895 -4.48438,-10.82813 0,-4.22914 1.49479,-7.83851 4.48438,-10.82812 2.98957,-2.98956 6.59894,-4.48435 10.82812,-4.48438 4.22915,3e-5 7.83852,1.49482 10.82813,4.48438 2.98955,2.98961 4.48434,6.59898 4.48437,10.82812 -3e-5,0.60158 -0.21878,1.12111 -0.65625,1.5586 -0.4193,0.41928 -0.92972,0.62892 -1.53125,0.6289 l -23.87109,0 c 0.40103,2.09637 1.40364,3.94663 3.00781,5.55079 2.1328,2.13281 4.71223,3.19922 7.73828,3.19921 2.73436,10e-6 5.08592,-0.86588 7.05469,-2.59765 0.40102,-0.30989 0.85675,-0.46484 1.36719,-0.46485"
         id="path3931"
         style="font-size:56px;font-variant:normal;font-stretch:normal;fill:#ffffff;font-family:Comfortaa;-inkscape-font-specification:Comfortaa" />
      <path
         d="m 715.41055,593.57275 c 0,-0.60153 0.20964,-1.11195 0.62891,-1.53125 0.4375,-0.43747 0.95703,-0.65622 1.55859,-0.65625 0.60156,3e-5 1.11198,0.21878 1.53125,0.65625 0.4375,0.4193 0.65625,0.92972 0.65625,1.53125 l 0,2.40625 c 3.06249,-3.06247 6.70832,-4.59372 10.9375,-4.59375 2.1328,3e-5 4.09243,0.36462 5.87891,1.09375 0.3281,0.12764 0.62888,0.31904 0.90234,0.57422 0.41925,0.43753 0.62888,0.95706 0.62891,1.5586 -3e-5,0.60159 -0.21878,1.12112 -0.65625,1.55859 -0.4193,0.4193 -0.92971,0.62893 -1.53125,0.62891 -0.34638,2e-5 -0.66539,-0.0729 -0.95703,-0.21875 -1.29429,-0.54685 -2.71617,-0.82029 -4.26563,-0.82032 -3.02605,3e-5 -5.60548,1.06644 -7.73828,3.19922 -2.13282,2.13284 -3.19922,4.71226 -3.19922,7.73828 l 0,13.125 c 0,0.60157 -0.21875,1.1211 -0.65625,1.5586 -0.41927,0.41927 -0.92969,0.6289 -1.53125,0.6289 -0.60156,0 -1.12109,-0.20963 -1.55859,-0.6289 -0.41927,-0.4375 -0.62891,-0.95703 -0.62891,-1.5586 l 0,-26.25"
         id="path3933"
         style="font-size:56px;font-variant:normal;font-stretch:normal;fill:#ffffff;font-family:Comfortaa;-inkscape-font-specification:Comfortaa" />
      <path
         d="m 765.12149,591.95947 3.39063,3.41797 3.2539,-2.57031 c 1.80467,-1.44007 2.70701,-3.00778 2.70703,-4.70313 -2e-5,-1.51298 -0.53778,-2.79814 -1.61328,-3.85546 -1.05731,-1.07549 -2.34246,-1.61325 -3.85547,-1.61329 -1.51303,4e-5 -2.8073,0.5378 -3.88281,1.61329 -1.0573,1.05732 -1.58595,2.34248 -1.58594,3.85546 -10e-6,1.51306 0.52864,2.79821 1.58594,3.85547 m 13.09766,19.35938 -10.17188,-10.19922 -3.08984,2.35156 c -2.40626,1.85939 -3.60938,3.84637 -3.60938,5.96094 0,2.47918 0.74739,4.46615 2.24219,5.96094 1.49478,1.49479 3.29947,2.24219 5.41406,2.24218 2.11457,10e-6 3.91926,-0.74739 5.41407,-2.24218 l 3.80078,-4.07422 m -6.67188,-12.90625 9.67969,9.70703 4.83984,-5.16797 c 0.41924,-0.41925 0.92966,-0.62889 1.53125,-0.62891 0.60153,2e-5 1.11195,0.21877 1.53125,0.65625 0.43747,0.41929 0.65622,0.92971 0.65625,1.53125 -3e-5,0.56513 -0.18232,1.05731 -0.54687,1.47657 l -4.92188,5.22265 7.05469,7.13672 c 0.40101,0.40105 0.60153,0.89323 0.60156,1.47656 -3e-5,0.60157 -0.21878,1.1211 -0.65625,1.5586 -0.4193,0.41927 -0.92972,0.6289 -1.53125,0.6289 -0.58336,0 -1.09378,-0.20052 -1.53125,-0.60156 l -6.94531,-6.97265 -3.80078,4.04687 c -2.35158,2.35156 -5.18622,3.52734 -8.50391,3.52734 -3.31772,0 -6.15235,-1.17578 -8.5039,-3.52734 -2.35157,-2.35156 -3.52735,-5.36848 -3.52735,-9.05078 0,-3.31769 1.72266,-6.33462 5.16797,-9.05078 l 2.89844,-2.26953 -3.00781,-3.03516 c -1.91407,-1.93226 -2.8711,-4.25648 -2.8711,-6.97266 0,-2.71611 0.95703,-5.03121 2.8711,-6.94531 1.93228,-1.93225 4.2565,-2.89839 6.97265,-2.89844 2.71613,5e-5 5.03123,0.96619 6.94532,2.89844 1.93226,1.9141 2.89841,4.2292 2.89843,6.94531 -2e-5,2.89847 -1.33075,5.49613 -3.99218,7.79297 l -3.3086,2.51563"
         id="path3935"
         style="font-size:56px;font-variant:normal;font-stretch:normal;fill:#ffffff;font-family:Comfortaa;-inkscape-font-specification:Comfortaa" />
      <path
         d="m 816.03555,619.82275 c 0,0.60157 -0.21875,1.1211 -0.65625,1.5586 -0.41927,0.41927 -0.92969,0.6289 -1.53125,0.6289 -0.60156,0 -1.12109,-0.20963 -1.55859,-0.6289 -0.41927,-0.4375 -0.62891,-0.95703 -0.62891,-1.5586 l 0,-26.25 c 0,-0.60153 0.20964,-1.11195 0.62891,-1.53125 0.4375,-0.43747 0.95703,-0.65622 1.55859,-0.65625 0.60156,3e-5 1.11198,0.21878 1.53125,0.65625 0.4375,0.4193 0.65625,0.92972 0.65625,1.53125 l 0,0.57422 c 2.16927,-1.84111 4.72135,-2.76169 7.65625,-2.76172 3.31769,3e-5 6.15233,1.17581 8.50391,3.52735 0.49216,0.49221 0.93878,1.01174 1.33984,1.55859 0.40102,-0.54685 0.84763,-1.06638 1.33985,-1.55859 2.35153,-2.35154 5.18616,-3.52732 8.5039,-3.52735 3.31767,3e-5 6.15231,1.17581 8.50391,3.52735 2.35152,2.35158 3.5273,5.18622 3.52734,8.5039 l 0,16.40625 c -4e-5,0.60157 -0.21879,1.1211 -0.65625,1.5586 -0.41931,0.41927 -0.92973,0.6289 -1.53125,0.6289 -0.6016,0 -1.12113,-0.20963 -1.55859,-0.6289 -0.41931,-0.4375 -0.62895,-0.95703 -0.62891,-1.5586 l 0,-16.40625 c -4e-5,-2.11456 -0.74743,-3.91924 -2.24218,-5.41406 -1.49483,-1.49476 -3.29952,-2.24216 -5.41407,-2.24219 -2.11461,3e-5 -3.9193,0.74743 -5.41406,2.24219 -1.49482,1.49482 -2.24221,3.2995 -2.24219,5.41406 l 0,16.40625 c -2e-5,0.60157 -0.21877,1.1211 -0.65625,1.5586 -0.41929,0.41927 -0.92971,0.6289 -1.53125,0.6289 -0.60158,0 -1.12111,-0.20963 -1.55859,-0.6289 -0.41929,-0.4375 -0.62893,-0.95703 -0.62891,-1.5586 l 0,-16.40625 c -2e-5,-2.11456 -0.74741,-3.91924 -2.24218,-5.41406 -1.49481,-1.49476 -3.2995,-2.24216 -5.41407,-2.24219 -2.11459,3e-5 -3.91928,0.74743 -5.41406,2.24219 -1.4948,1.49482 -2.24219,3.2995 -2.24219,5.41406 l 0,16.40625"
         id="path3937"
         style="font-size:56px;font-variant:normal;font-stretch:normal;fill:#ffffff;font-family:Comfortaa;-inkscape-font-specification:Comfortaa" />
      <path
         d="m 875.09805,595.76025 c -3.02605,3e-5 -5.60548,1.06644 -7.73828,3.19922 -2.13282,2.13284 -3.19922,4.71226 -3.19922,7.73828 0,3.02606 1.0664,5.60548 3.19922,7.73829 2.1328,2.13281 4.71223,3.19922 7.73828,3.19921 3.02602,10e-6 5.60545,-1.0664 7.73828,-3.19921 2.13279,-2.13281 3.19919,-4.71223 3.19922,-7.73829 -3e-5,-3.02602 -1.06643,-5.60544 -3.19922,-7.73828 -2.13283,-2.13278 -4.71226,-3.19919 -7.73828,-3.19922 m 10.9375,21.65625 c -3.06252,3.06251 -6.70835,4.59375 -10.9375,4.59375 -4.22918,0 -7.83855,-1.49479 -10.82812,-4.48437 -2.98959,-2.98958 -4.48438,-6.59895 -4.48438,-10.82813 0,-4.22914 1.49479,-7.83851 4.48438,-10.82812 2.98957,-2.98956 6.59894,-4.48435 10.82812,-4.48438 4.22915,3e-5 7.83852,1.49482 10.82813,4.48438 2.98955,2.98961 4.48434,6.59898 4.48437,10.82812 l 0,13.125 c -3e-5,0.60157 -0.21878,1.1211 -0.65625,1.5586 -0.4193,0.41927 -0.92972,0.6289 -1.53125,0.6289 -0.60159,0 -1.12112,-0.20963 -1.55859,-0.6289 -0.4193,-0.4375 -0.62894,-0.95703 -0.62891,-1.5586 l 0,-2.40625"
         id="path3939"
         style="font-size:56px;font-variant:normal;font-stretch:normal;fill:#ffffff;font-family:Comfortaa;-inkscape-font-specification:Comfortaa" />
      <path
         d="m 901.89493,584.82275 c -1e-5,0.74744 -0.27345,1.39457 -0.82031,1.94141 -0.52866,0.52868 -1.16668,0.793 -1.91407,0.79297 -0.7474,3e-5 -1.39453,-0.26429 -1.9414,-0.79297 -0.52865,-0.54684 -0.79298,-1.19397 -0.79297,-1.94141 -1e-5,-0.74735 0.26432,-1.38537 0.79297,-1.91406 0.54687,-0.54683 1.194,-0.82027 1.9414,-0.82031 0.74739,4e-5 1.38541,0.27348 1.91407,0.82031 0.54686,0.52869 0.8203,1.16671 0.82031,1.91406 m -4.92188,8.75 c 0,-0.60153 0.20963,-1.11195 0.62891,-1.53125 0.43749,-0.43747 0.95702,-0.65622 1.55859,-0.65625 0.60156,3e-5 1.11197,0.21878 1.53125,0.65625 0.43749,0.4193 0.65624,0.92972 0.65625,1.53125 l 0,26.25 c -10e-6,0.60157 -0.21876,1.1211 -0.65625,1.5586 -0.41928,0.41927 -0.92969,0.6289 -1.53125,0.6289 -0.60157,0 -1.1211,-0.20963 -1.55859,-0.6289 -0.41928,-0.4375 -0.62891,-0.95703 -0.62891,-1.5586 l 0,-26.25"
         id="path3941"
         style="font-size:56px;font-variant:normal;font-stretch:normal;fill:#ffffff;font-family:Comfortaa;-inkscape-font-specification:Comfortaa" />
      <path
         d="m 907.91055,580.44775 c 0,-0.60152 0.20964,-1.11193 0.62891,-1.53125 0.4375,-0.43745 0.95703,-0.6562 1.55859,-0.65625 0.60156,5e-5 1.11198,0.2188 1.53125,0.65625 0.4375,0.41932 0.65625,0.92973 0.65625,1.53125 l 0,37.1875 2.1875,0 c 0.60156,10e-6 1.11197,0.21876 1.53125,0.65625 0.43749,0.41928 0.65624,0.92969 0.65625,1.53125 -10e-6,0.60157 -0.21876,1.1211 -0.65625,1.5586 -0.41928,0.41927 -0.92969,0.6289 -1.53125,0.6289 l -4.375,0 c -0.60156,0 -1.12109,-0.20963 -1.55859,-0.6289 -0.41927,-0.4375 -0.62891,-0.95703 -0.62891,-1.5586 l 0,-39.375"
         id="path3943"
         style="font-size:56px;font-variant:normal;font-stretch:normal;fill:#ffffff;font-family:Comfortaa;-inkscape-font-specification:Comfortaa" />
      <path
         d="m 928.14493,584.82275 c -1e-5,0.74744 -0.27345,1.39457 -0.82031,1.94141 -0.52866,0.52868 -1.16668,0.793 -1.91407,0.79297 -0.7474,3e-5 -1.39453,-0.26429 -1.9414,-0.79297 -0.52865,-0.54684 -0.79298,-1.19397 -0.79297,-1.94141 -1e-5,-0.74735 0.26432,-1.38537 0.79297,-1.91406 0.54687,-0.54683 1.194,-0.82027 1.9414,-0.82031 0.74739,4e-5 1.38541,0.27348 1.91407,0.82031 0.54686,0.52869 0.8203,1.16671 0.82031,1.91406 m -4.92188,8.75 c 0,-0.60153 0.20963,-1.11195 0.62891,-1.53125 0.43749,-0.43747 0.95702,-0.65622 1.55859,-0.65625 0.60156,3e-5 1.11197,0.21878 1.53125,0.65625 0.43749,0.4193 0.65624,0.92972 0.65625,1.53125 l 0,26.25 c -10e-6,0.60157 -0.21876,1.1211 -0.65625,1.5586 -0.41928,0.41927 -0.92969,0.6289 -1.53125,0.6289 -0.60157,0 -1.1211,-0.20963 -1.55859,-0.6289 -0.41928,-0.4375 -0.62891,-0.95703 -0.62891,-1.5586 l 0,-26.25"
         id="path3945"
         style="font-size:56px;font-variant:normal;font-stretch:normal;fill:#ffffff;font-family:Comfortaa;-inkscape-font-specification:Comfortaa" />
      <path
         d="m 934.16055,593.57275 c 0,-0.60153 0.20964,-1.11195 0.62891,-1.53125 0.4375,-0.43747 0.95703,-0.65622 1.55859,-0.65625 0.60156,3e-5 1.11198,0.21878 1.53125,0.65625 0.4375,0.4193 0.65625,0.92972 0.65625,1.53125 l 0,1.77735 c 2.73437,-2.6432 6.01562,-3.96482 9.84375,-3.96485 3.91925,3e-5 7.2643,1.39456 10.03516,4.1836 2.78903,2.77085 4.18356,6.1159 4.18359,10.03515 l 0,14.21875 c -3e-5,0.60157 -0.21878,1.1211 -0.65625,1.5586 -0.4193,0.41927 -0.92971,0.6289 -1.53125,0.6289 -0.60159,0 -1.12112,-0.20963 -1.55859,-0.6289 -0.4193,-0.4375 -0.62893,-0.95703 -0.62891,-1.5586 l 0,-14.21875 c -2e-5,-2.71612 -0.96617,-5.03122 -2.89843,-6.94531 -1.91409,-1.93226 -4.22919,-2.89841 -6.94532,-2.89844 -2.71616,3e-5 -5.04037,0.96618 -6.97265,2.89844 -1.91407,1.91409 -2.8711,4.22919 -2.8711,6.94531 l 0,14.21875 c 0,0.60157 -0.21875,1.1211 -0.65625,1.5586 -0.41927,0.41927 -0.92969,0.6289 -1.53125,0.6289 -0.60156,0 -1.12109,-0.20963 -1.55859,-0.6289 -0.41927,-0.4375 -0.62891,-0.95703 -0.62891,-1.5586 l 0,-26.25"
         id="path3947"
         style="font-size:56px;font-variant:normal;font-stretch:normal;fill:#ffffff;font-family:Comfortaa;-inkscape-font-specification:Comfortaa" />
      <path
         d="m 982.28555,595.76025 c -3.02605,3e-5 -5.60548,1.06644 -7.73828,3.19922 -2.13282,2.13284 -3.19922,4.71226 -3.19922,7.73828 0,3.02606 1.0664,5.60548 3.19922,7.73829 2.1328,2.13281 4.71223,3.19922 7.73828,3.19921 3.02602,10e-6 5.60545,-1.0664 7.73828,-3.19921 2.13279,-2.13281 3.19919,-4.71223 3.19922,-7.73829 -3e-5,-3.02602 -1.06643,-5.60544 -3.19922,-7.73828 -2.13283,-2.13278 -4.71226,-3.19919 -7.73828,-3.19922 m 10.9375,21.65625 c -0.0365,0.0365 -0.0729,0.0729 -0.10937,0.10938 -2.98961,2.98958 -6.59898,4.48437 -10.82813,4.48437 -4.22918,0 -7.83855,-1.49479 -10.82812,-4.48437 -2.98959,-2.98958 -4.48438,-6.59895 -4.48438,-10.82813 0,-4.22914 1.49479,-7.83851 4.48438,-10.82812 2.98957,-2.98956 6.59894,-4.48435 10.82812,-4.48438 4.22915,3e-5 7.83852,1.49482 10.82813,4.48438 2.98955,2.98961 4.48434,6.59898 4.48437,10.82812 l 0,15.3125 c -3e-5,3.1901 -1.14847,5.96094 -3.44531,8.3125 -3.20836,3.20833 -7.08205,4.81249 -11.62109,4.8125 -4.53908,-1e-5 -8.40366,-1.60417 -11.59375,-4.8125 -1.1849,-1.16667 -2.15105,-2.4336 -2.89844,-3.80078 -0.21875,-0.32813 -0.32813,-0.71094 -0.32813,-1.14843 0,-0.60157 0.20964,-1.1211 0.62891,-1.5586 0.4375,-0.41927 0.95703,-0.62891 1.55859,-0.6289 0.60156,-1e-5 1.12109,0.20963 1.5586,0.6289 0.18228,0.20052 0.33723,0.41927 0.46484,0.65625 0.54687,0.98437 1.24869,1.90494 2.10547,2.76172 2.35155,2.35156 5.18618,3.52734 8.50391,3.52734 3.31768,0 6.15232,-1.17578 8.5039,-3.52734 1.45831,-1.75 2.18747,-3.49089 2.1875,-5.22266 l 0,-4.59375"
         id="path3949"
         style="font-size:56px;font-variant:normal;font-stretch:normal;fill:#ffffff;font-family:Comfortaa;-inkscape-font-specification:Comfortaa" />
      <path
         d="m 1007.3871,606.69775 c -1.6588,-0.61977 -2.8164,-1.26691 -3.4726,-1.9414 -1.2943,-1.27603 -1.9414,-2.81639 -1.9414,-4.6211 0,-1.80466 0.6744,-3.38148 2.0234,-4.73046 2.625,-2.67966 6.0521,-4.01951 10.2812,-4.01954 4.5755,3e-5 8.4948,1.83206 11.7579,5.4961 0.2916,0.34638 0.4283,0.77476 0.4101,1.28515 0,0.60159 -0.2188,1.12112 -0.6562,1.5586 -0.4193,0.41929 -0.9298,0.62893 -1.5313,0.6289 -0.6016,3e-5 -1.0846,-0.19138 -1.4492,-0.57421 -0.3646,-0.38279 -0.6289,-0.65623 -0.793,-0.82032 -2.1328,-2.13278 -4.7122,-3.19919 -7.7383,-3.19922 -3.026,3e-5 -5.4414,0.94795 -7.2461,2.84375 -0.4375,0.52867 -0.6562,1.15758 -0.6562,1.88672 0.055,0.85679 0.5013,1.44013 1.3398,1.75 l 13.4532,4.45703 c 1.6588,0.61981 2.8163,1.26695 3.4726,1.94141 1.2943,1.27605 1.9414,2.81642 1.9414,4.62109 0,1.8047 -0.6745,3.38152 -2.0234,4.73047 -2.625,2.67969 -6.0521,4.01953 -10.2813,4.01953 -4.5937,0 -8.513,-1.83203 -11.7578,-5.49609 -0.2734,-0.38281 -0.4101,-0.81119 -0.4101,-1.28516 0,-0.60155 0.2096,-1.11197 0.6289,-1.53125 0.4375,-0.43749 0.957,-0.65624 1.5586,-0.65625 0.6015,10e-6 1.0846,0.19142 1.4492,0.57422 0.3646,0.38282 0.6289,0.65626 0.793,0.82032 2.1328,2.13281 4.7122,3.19922 7.7382,3.19921 3.0261,10e-6 5.4414,-0.94791 7.2461,-2.84375 0.4375,-0.52863 0.6563,-1.15754 0.6563,-1.88671 -0.055,-0.85677 -0.5013,-1.4401 -1.3399,-1.75 l -13.4531,-4.45704"
         id="path3951"
         style="font-size:56px;font-variant:normal;font-stretch:normal;fill:#ffffff;font-family:Comfortaa;-inkscape-font-specification:Comfortaa" />
      <path
         d="m 1041.7035,619.79541 -10.5,-25.21094 c -0.164,-0.30987 -0.2461,-0.6471 -0.2461,-1.01172 0,-0.60153 0.2097,-1.11195 0.6289,-1.53125 0.4375,-0.43747 0.9571,-0.65622 1.5586,-0.65625 0.6016,3e-5 1.1211,0.20967 1.5586,0.62891 0.237,0.25524 0.4102,0.52868 0.5196,0.82031 l 8.8593,21.2461 8.8594,-21.2461 c 0.1094,-0.29163 0.2916,-0.56507 0.5469,-0.82031 0.4192,-0.41924 0.9296,-0.62888 1.5312,-0.62891 0.6016,3e-5 1.112,0.21878 1.5313,0.65625 0.4374,0.4193 0.6562,0.92972 0.6562,1.53125 0,0.36462 -0.082,0.70185 -0.2461,1.01172 l -16.2968,39.10157 c -0.1094,0.29165 -0.2826,0.55597 -0.5196,0.79296 -0.4375,0.43749 -0.957,0.65624 -1.5586,0.65625 -0.6015,-1e-5 -1.1211,-0.21876 -1.5586,-0.65625 -0.4192,-0.41928 -0.6289,-0.9297 -0.6289,-1.53125 0,-0.36459 0.082,-0.70183 0.2461,-1.01171 l 5.0586,-12.14063"
         id="path3953"
         style="font-size:56px;font-variant:normal;font-stretch:normal;fill:#ffffff;font-family:Comfortaa;-inkscape-font-specification:Comfortaa" />
      <path
         d="m 1066.9965,606.69775 c -1.6589,-0.61977 -2.8164,-1.26691 -3.4727,-1.9414 -1.2942,-1.27603 -1.9414,-2.81639 -1.9414,-4.6211 0,-1.80466 0.6745,-3.38148 2.0235,-4.73046 2.625,-2.67966 6.052,-4.01951 10.2812,-4.01954 4.5755,3e-5 8.4948,1.83206 11.7578,5.4961 0.2917,0.34638 0.4284,0.77476 0.4102,1.28515 0,0.60159 -0.2188,1.12112 -0.6563,1.5586 -0.4193,0.41929 -0.9297,0.62893 -1.5312,0.6289 -0.6016,3e-5 -1.0847,-0.19138 -1.4492,-0.57421 -0.3646,-0.38279 -0.629,-0.65623 -0.793,-0.82032 -2.1328,-2.13278 -4.7123,-3.19919 -7.7383,-3.19922 -3.026,3e-5 -5.4414,0.94795 -7.2461,2.84375 -0.4375,0.52867 -0.6562,1.15758 -0.6562,1.88672 0.055,0.85679 0.5013,1.44013 1.3398,1.75 l 13.4531,4.45703 c 1.6589,0.61981 2.8164,1.26695 3.4727,1.94141 1.2942,1.27605 1.9414,2.81642 1.9414,4.62109 0,1.8047 -0.6745,3.38152 -2.0234,4.73047 -2.6251,2.67969 -6.0521,4.01953 -10.2813,4.01953 -4.5937,0 -8.513,-1.83203 -11.7578,-5.49609 -0.2734,-0.38281 -0.4102,-0.81119 -0.4102,-1.28516 0,-0.60155 0.2097,-1.11197 0.629,-1.53125 0.4374,-0.43749 0.957,-0.65624 1.5585,-0.65625 0.6016,10e-6 1.0847,0.19142 1.4493,0.57422 0.3645,0.38282 0.6289,0.65626 0.7929,0.82032 2.1328,2.13281 4.7123,3.19922 7.7383,3.19921 3.026,10e-6 5.4414,-0.94791 7.2461,-2.84375 0.4375,-0.52863 0.6562,-1.15754 0.6563,-1.88671 -0.055,-0.85677 -0.5014,-1.4401 -1.3399,-1.75 l -13.4531,-4.45704"
         id="path3956"
         style="font-size:56px;font-variant:normal;font-stretch:normal;fill:#ffffff;font-family:Comfortaa;-inkscape-font-specification:Comfortaa" />
      <path
         d="m 1105.8793,617.63525 c 0.6015,10e-6 1.112,0.21876 1.5313,0.65625 0.4374,0.41928 0.6562,0.92969 0.6562,1.53125 0,0.60157 -0.2188,1.1211 -0.6562,1.5586 -0.4193,0.41927 -0.9298,0.6289 -1.5313,0.6289 -7.2917,0 -10.9375,-3.64583 -10.9375,-10.9375 l 0,-15.3125 -2.1875,0 c -0.6016,3e-5 -1.1211,-0.20961 -1.5586,-0.6289 -0.4193,-0.43748 -0.6289,-0.95701 -0.6289,-1.5586 0,-0.60153 0.2096,-1.11195 0.6289,-1.53125 0.4375,-0.43747 0.957,-0.65622 1.5586,-0.65625 l 2.1875,0 0,-10.9375 c 0,-0.60152 0.2096,-1.11193 0.6289,-1.53125 0.4375,-0.43745 0.957,-0.6562 1.5586,-0.65625 0.6016,5e-5 1.112,0.2188 1.5313,0.65625 0.4374,0.41932 0.6562,0.92973 0.6562,1.53125 l 0,10.9375 4.4023,0 c 0.6016,3e-5 1.112,0.21878 1.5313,0.65625 0.4375,0.4193 0.6562,0.92972 0.6562,1.53125 0,0.60159 -0.2187,1.12112 -0.6562,1.5586 -0.4193,0.41929 -0.9297,0.62893 -1.5313,0.6289 l -4.4023,0 0,15.3125 c 0,4.37501 2.1875,6.56251 6.5625,6.5625"
         id="path3958"
         style="font-size:56px;font-variant:normal;font-stretch:normal;fill:#ffffff;font-family:Comfortaa;-inkscape-font-specification:Comfortaa" />
      <path
         d="m 1138.5004,604.51025 c -0.4011,-2.09633 -1.4037,-3.94659 -3.0078,-5.55078 -2.1329,-2.13278 -4.7123,-3.19919 -7.7383,-3.19922 -3.0261,3e-5 -5.6055,1.06644 -7.7383,3.19922 -1.6042,1.60419 -2.6068,3.45445 -3.0078,5.55078 l 21.4922,0 m -2.3242,10.0625 c 0.6015,10e-6 1.1119,0.21876 1.5312,0.65625 0.4375,0.41928 0.6562,0.9297 0.6563,1.53125 -1e-4,0.60157 -0.2097,1.1211 -0.6289,1.5586 -2.8256,2.46094 -6.1524,3.6914 -9.9805,3.6914 -4.2292,0 -7.8385,-1.49479 -10.8281,-4.48437 -2.9896,-2.98958 -4.4844,-6.59895 -4.4844,-10.82813 0,-4.22914 1.4948,-7.83851 4.4844,-10.82812 2.9896,-2.98956 6.5989,-4.48435 10.8281,-4.48438 4.2291,3e-5 7.8385,1.49482 10.8281,4.48438 2.9896,2.98961 4.4844,6.59898 4.4844,10.82812 0,0.60158 -0.2188,1.12111 -0.6562,1.5586 -0.4193,0.41928 -0.9298,0.62892 -1.5313,0.6289 l -23.8711,0 c 0.401,2.09637 1.4036,3.94663 3.0078,5.55079 2.1328,2.13281 4.7122,3.19922 7.7383,3.19921 2.7344,10e-6 5.0859,-0.86588 7.0547,-2.59765 0.401,-0.30989 0.8567,-0.46484 1.3672,-0.46485"
         id="path3960"
         style="font-size:56px;font-variant:normal;font-stretch:normal;fill:#ffffff;font-family:Comfortaa;-inkscape-font-specification:Comfortaa" />
      <path
         d="m 1151.8168,619.82275 c 0,0.60157 -0.2188,1.1211 -0.6562,1.5586 -0.4193,0.41927 -0.9297,0.6289 -1.5313,0.6289 -0.6016,0 -1.1211,-0.20963 -1.5586,-0.6289 -0.4193,-0.4375 -0.6289,-0.95703 -0.6289,-1.5586 l 0,-26.25 c 0,-0.60153 0.2096,-1.11195 0.6289,-1.53125 0.4375,-0.43747 0.957,-0.65622 1.5586,-0.65625 0.6016,3e-5 1.112,0.21878 1.5313,0.65625 0.4374,0.4193 0.6562,0.92972 0.6562,1.53125 l 0,0.57422 c 2.1693,-1.84111 4.7213,-2.76169 7.6563,-2.76172 3.3176,3e-5 6.1523,1.17581 8.5039,3.52735 0.4921,0.49221 0.9387,1.01174 1.3398,1.55859 0.401,-0.54685 0.8476,-1.06638 1.3398,-1.55859 2.3516,-2.35154 5.1862,-3.52732 8.504,-3.52735 3.3176,3e-5 6.1523,1.17581 8.5039,3.52735 2.3515,2.35158 3.5273,5.18622 3.5273,8.5039 l 0,16.40625 c 0,0.60157 -0.2188,1.1211 -0.6562,1.5586 -0.4194,0.41927 -0.9298,0.6289 -1.5313,0.6289 -0.6016,0 -1.1211,-0.20963 -1.5586,-0.6289 -0.4193,-0.4375 -0.6289,-0.95703 -0.6289,-1.5586 l 0,-16.40625 c 0,-2.11456 -0.7474,-3.91924 -2.2422,-5.41406 -1.4948,-1.49476 -3.2995,-2.24216 -5.414,-2.24219 -2.1147,3e-5 -3.9193,0.74743 -5.4141,2.24219 -1.4948,1.49482 -2.2422,3.2995 -2.2422,5.41406 l 0,16.40625 c 0,0.60157 -0.2188,1.1211 -0.6562,1.5586 -0.4193,0.41927 -0.9298,0.6289 -1.5313,0.6289 -0.6016,0 -1.1211,-0.20963 -1.5586,-0.6289 -0.4193,-0.4375 -0.6289,-0.95703 -0.6289,-1.5586 l 0,-16.40625 c 0,-2.11456 -0.7474,-3.91924 -2.2422,-5.41406 -1.4948,-1.49476 -3.2995,-2.24216 -5.414,-2.24219 -2.1146,3e-5 -3.9193,0.74743 -5.4141,2.24219 -1.4948,1.49482 -2.2422,3.2995 -2.2422,5.41406 l 0,16.40625"
         id="path3962"
         style="font-size:56px;font-variant:normal;font-stretch:normal;fill:#ffffff;font-family:Comfortaa;-inkscape-font-specification:Comfortaa" />
    </g>
  </g>
</svg>
